<?xml version="1.0" encoding="UTF-8" standalone="no"?>
<svg
   xmlns:dc="http://purl.org/dc/elements/1.1/"
   xmlns:cc="http://creativecommons.org/ns#"
   xmlns:rdf="http://www.w3.org/1999/02/22-rdf-syntax-ns#"
   xmlns:svg="http://www.w3.org/2000/svg"
   xmlns="http://www.w3.org/2000/svg"
   xmlns:sodipodi="http://sodipodi.sourceforge.net/DTD/sodipodi-0.dtd"
   xmlns:inkscape="http://www.inkscape.org/namespaces/inkscape"
   version="1.1"
   id="svg2"
   xml:space="preserve"
   width="1056"
   height="816"
   viewBox="0 0 1056 816"
   sodipodi:docname="TEJE CORAZON_horizontal.ai"><metadata
     id="metadata8"><rdf:RDF><cc:Work
         rdf:about=""><dc:format>image/svg+xml</dc:format><dc:type
           rdf:resource="http://purl.org/dc/dcmitype/StillImage" /></cc:Work></rdf:RDF></metadata><defs
     id="defs6"><clipPath
       clipPathUnits="userSpaceOnUse"
       id="clipPath18"><path
         d="M 0,612 H 792 V 0 H 0 Z"
         id="path16" /></clipPath></defs><sodipodi:namedview
     pagecolor="#ffffff"
     bordercolor="#666666"
     borderopacity="1"
     objecttolerance="10"
     gridtolerance="10"
     guidetolerance="10"
     inkscape:pageopacity="0"
     inkscape:pageshadow="2"
     inkscape:window-width="640"
     inkscape:window-height="480"
     id="namedview4" /><g
     id="g10"
     inkscape:groupmode="layer"
     inkscape:label="TEJE CORAZON_horizontal"
     transform="matrix(1.3333333,0,0,-1.3333333,0,816)"><g
       id="g12"><g
         id="g14"
         clip-path="url(#clipPath18)"><g
           id="g20"
           transform="translate(295.1299,230.6309)"><path
             d="m 0,0 c -0.097,0.068 -0.198,0.103 -0.299,0.103 -0.095,0 -0.273,-0.033 -0.413,-0.254 -0.082,-0.137 -0.144,-0.201 -0.181,-0.23 -0.05,-0.016 -0.162,-0.043 -0.397,-0.063 -0.428,-0.047 -0.693,0.109 -0.844,0.524 -0.125,0.337 -0.189,0.908 -0.189,1.696 0,1.301 0.05,3.21 0.147,5.674 0.091,2.294 0.149,4.045 0.173,5.211 0.301,0.018 0.566,0.025 0.794,0.019 0.128,-0.181 0.314,-0.199 0.38,-0.199 0.02,0 0.042,0.002 0.064,0.004 h 0.097 l 0.179,0.033 c 0.08,0.002 0.144,0.011 0.196,0.03 0.066,0.023 0.126,0.059 0.174,0.106 0.166,0.142 0.217,0.352 0.141,0.552 -0.055,0.171 -0.155,0.254 -0.23,0.293 l -0.038,0.032 -0.08,0.023 c -0.422,0.115 -0.979,0.157 -1.673,0.122 -10e-4,0.905 -0.021,1.601 -0.061,2.081 -0.06,0.483 -0.132,0.883 -0.22,1.207 -0.165,0.47 -0.407,0.777 -0.739,0.922 -0.059,0.02 -0.117,0.031 -0.174,0.031 -0.096,0 -0.333,-0.033 -0.446,-0.346 -0.102,-0.276 0.011,-0.535 0.271,-0.649 0.002,-0.003 0.054,-0.051 0.12,-0.26 0.075,-0.255 0.141,-0.605 0.196,-1.028 0.039,-0.443 0.058,-1.125 0.058,-2.031 l -0.476,-0.04 c -0.38,-0.041 -0.687,-0.061 -0.913,-0.061 -0.297,0 -0.497,-0.204 -0.497,-0.508 0,-0.304 0.2,-0.509 0.497,-0.509 0.249,0 0.587,0.022 0.999,0.064 L -3,12.583 C -3.024,11.427 -3.082,9.706 -3.17,7.459 -3.268,4.995 -3.318,3.084 -3.318,1.776 c 0,-0.912 0.083,-1.583 0.254,-2.053 0.289,-0.782 0.855,-1.195 1.637,-1.195 0.083,0 0.169,0.005 0.25,0.014 0.323,0.024 0.567,0.088 0.721,0.182 0.228,0.107 0.43,0.301 0.594,0.572 C 0.3,-0.448 0.246,-0.171 0,0"
             style="fill:#776e64;fill-opacity:1;fill-rule:nonzero;stroke:none"
             id="path22" /></g><g
           id="g24"
           transform="translate(305.4282,237.5635)"><path
             d="m 0,0 h -2.47 c -0.435,0.01 -0.784,0.016 -1.046,0.016 -0.088,0 -0.166,-0.001 -0.234,-0.002 0.11,1.138 0.342,2.177 0.69,3.091 0.596,1.545 1.393,2.521 2.378,2.905 C -0.243,6.199 0.232,6.104 0.782,5.727 1.33,5.36 1.835,4.778 2.285,3.99 2.737,3.238 3.037,2.468 3.177,1.701 3.3,1.03 3.282,0.494 3.123,0.106 3.107,0.103 3.087,0.097 3.062,0.091 2.889,0.071 2.636,0.051 2.317,0.03 1.788,0.01 1.008,0 0,0 M 3.141,4.502 C 2.61,5.425 2.005,6.124 1.34,6.583 0.517,7.129 -0.278,7.268 -1.021,6.982 -2.294,6.479 -3.292,5.307 -3.987,3.499 -4.587,1.9 -4.861,0.101 -4.802,-1.847 c 0.04,-2.002 0.44,-3.685 1.187,-5.002 0.844,-1.499 1.994,-2.259 3.418,-2.259 0.059,0 0.119,0.002 0.18,0.004 1.505,0.067 2.769,1.155 3.758,3.234 0.127,0.266 0.042,0.525 -0.216,0.662 -0.081,0.042 -0.163,0.063 -0.243,0.063 -0.085,0 -0.296,-0.028 -0.42,-0.289 -0.829,-1.723 -1.806,-2.617 -2.902,-2.654 -1.133,-0.034 -2.02,0.532 -2.713,1.742 -0.662,1.171 -1.016,2.689 -1.054,4.521 -0.015,0.272 -0.018,0.547 -0.01,0.82 0.224,0.006 0.689,0.004 1.34,-0.012 H 0 c 1.007,0 1.805,0.011 2.375,0.032 0.354,0.021 0.62,0.051 0.813,0.092 0.134,0.002 0.241,0.018 0.328,0.048 0.182,0.064 0.308,0.154 0.393,0.286 C 4.256,0.059 4.337,0.876 4.148,1.868 3.985,2.766 3.646,3.653 3.141,4.502"
             style="fill:#776e64;fill-opacity:1;fill-rule:nonzero;stroke:none"
             id="path26" /></g><g
           id="g28"
           transform="translate(317.1274,236.126)"><path
             d="m 0,0 c 0,0.33 0.004,0.942 0.015,1.84 0.009,0.9 0.014,1.588 0.014,2.064 0,0.481 -0.024,1.08 -0.074,1.832 -0.05,0.741 -0.125,1.412 -0.223,1.989 -0.038,0.272 -0.22,0.441 -0.476,0.441 -0.029,0 -0.059,-0.003 -0.092,-0.008 C -1.129,8.114 -1.299,7.883 -1.256,7.574 -1.16,7.007 -1.087,6.365 -1.039,5.666 -0.99,4.958 -0.966,4.365 -0.966,3.904 -0.966,3.43 -0.971,2.748 -0.98,1.862 -0.991,0.973 -0.995,0.352 -0.995,0 c 0,-1.128 0.01,-2.817 0.029,-5.023 0.02,-2.295 0.03,-3.937 0.03,-5.018 0,-0.304 0.2,-0.508 0.498,-0.508 0.297,0 0.497,0.204 0.497,0.508 0,1.094 -0.01,2.736 -0.03,5.023 C 0.01,-2.814 0,-1.126 0,0"
             style="fill:#776e64;fill-opacity:1;fill-rule:nonzero;stroke:none"
             id="path30" /></g><g
           id="g32"
           transform="translate(316.2173,248.3848)"><path
             d="m 0,0 c 0.274,0 0.442,0.117 0.535,0.215 l 0.089,0.093 0.104,0.186 c 0.059,0.1 0.09,0.221 0.093,0.36 C 0.87,1.166 0.804,1.603 0.24,1.966 0.03,2.093 -0.172,2.157 -0.359,2.157 -0.542,2.157 -0.807,2.096 -1.017,1.814 -1.3,1.486 -1.318,1.098 -1.079,0.735 c 0.145,-0.254 0.364,-0.459 0.67,-0.619 0.116,-0.05 0.234,-0.086 0.35,-0.11 z"
             style="fill:#776e64;fill-opacity:1;fill-rule:nonzero;stroke:none"
             id="path34" /></g><g
           id="g36"
           transform="translate(324.3379,249.958)"><path
             d="m 0,0 c -0.033,0.017 -0.071,0.034 -0.114,0.047 -0.121,0.067 -0.242,0.101 -0.36,0.101 -0.119,0 -0.296,-0.036 -0.459,-0.207 -0.056,-0.058 -0.1,-0.127 -0.132,-0.204 -0.041,-0.05 -0.075,-0.104 -0.105,-0.172 -0.059,-0.15 -0.065,-0.308 -0.02,-0.461 V -0.91 c 0,-0.026 0.003,-0.052 0.008,-0.078 -0.003,-0.017 -0.005,-0.033 -0.006,-0.046 -0.035,-0.243 0.041,-0.411 0.102,-0.497 0.064,-0.101 0.149,-0.177 0.249,-0.223 0.12,-0.086 0.248,-0.129 0.38,-0.129 0.241,0 0.461,0.148 0.656,0.44 l 0.021,0.037 c 0.027,0.057 0.044,0.116 0.052,0.177 0.017,0.04 0.034,0.086 0.051,0.139 0.021,0.068 0.042,0.146 0.064,0.236 l 0.008,0.068 c 0,0.133 -0.02,0.262 -0.058,0.382 C 0.287,-0.244 0.181,-0.113 0,0"
             style="fill:#776e64;fill-opacity:1;fill-rule:nonzero;stroke:none"
             id="path38" /></g><g
           id="g40"
           transform="translate(324.0547,234.2148)"><path
             d="M 0,0 C -0.04,1.024 -0.054,1.753 -0.044,2.167 -0.035,2.582 0,3.313 0.059,4.342 0.118,5.377 0.157,6.111 0.177,6.559 0.177,6.573 0.172,6.815 0.163,7.285 L 0.147,8.057 C 0.128,8.601 0.164,9.028 0.255,9.334 0.336,9.631 0.201,9.88 -0.09,9.968 -0.387,10.057 -0.639,9.908 -0.72,9.608 -0.827,9.206 -0.869,8.683 -0.848,8.009 L -0.841,7.674 C -0.826,6.968 -0.818,6.597 -0.818,6.573 -0.838,6.16 -0.877,5.433 -0.936,4.391 -0.996,3.329 -1.03,2.602 -1.039,2.165 -1.049,1.726 -1.035,0.97 -0.994,-0.104 l 0.236,-2.138 c 0.097,-0.876 0.146,-1.585 0.146,-2.107 0,-0.304 0.2,-0.508 0.498,-0.508 0.297,0 0.497,0.204 0.497,0.508 0,0.565 -0.05,1.306 -0.149,2.201 C 0.097,-0.889 0.018,-0.167 0,0"
             style="fill:#776e64;fill-opacity:1;fill-rule:nonzero;stroke:none"
             id="path42" /></g><g
           id="g44"
           transform="translate(333.9375,229.6436)"><path
             d="M 0,0 C -0.565,0.065 -1.018,0.285 -1.385,0.671 -1.91,1.223 -2.28,2.253 -2.487,3.734 -2.66,4.948 -2.699,6.146 -2.603,7.295 c 0.116,1.419 0.335,2.67 0.652,3.721 0.308,1.021 0.833,1.896 1.546,2.588 0.282,0.241 0.58,0.357 0.91,0.357 0.078,0 0.159,-0.006 0.24,-0.02 C 1.206,13.867 1.708,13.625 2.234,13.225 2.735,12.834 3.159,12.364 3.493,11.828 3.815,11.31 3.979,10.846 3.979,10.448 3.979,10.359 4,10.276 4.038,10.203 4.04,9.861 4.05,9.563 4.067,9.329 4.087,7.692 4.057,6.324 3.981,5.277 3.96,5.104 3.925,4.687 3.877,4.04 3.829,3.408 3.795,2.917 3.775,2.565 3.629,2.088 3.368,1.648 2.998,1.26 2.614,0.855 2.159,0.533 1.633,0.296 1.117,0.034 0.568,-0.064 0,0 m 5.019,10.671 c -0.011,0.558 -0.02,1.064 -0.03,1.519 -0.01,0.453 -0.015,0.884 -0.015,1.295 0,0.625 -0.038,1.554 -0.118,2.838 -0.078,1.249 -0.113,2.373 -0.103,3.342 0.01,0.954 0.111,1.856 0.307,2.706 0.039,0.29 -0.111,0.52 -0.382,0.586 C 4.4,23.022 4.166,22.889 4.081,22.622 L 4.073,22.592 C 3.894,21.71 3.792,20.743 3.773,19.72 c -0.02,-1.016 0.01,-2.182 0.089,-3.463 0.077,-1.274 0.117,-2.205 0.117,-2.772 0,-0.184 0.002,-0.381 0.005,-0.592 -0.327,0.418 -0.714,0.796 -1.155,1.131 -0.414,0.327 -0.836,0.576 -1.252,0.74 -0.434,0.17 -0.893,0.234 -1.373,0.189 -0.5,-0.049 -0.936,-0.254 -1.298,-0.611 -0.837,-0.835 -1.441,-1.846 -1.797,-3.002 -0.349,-1.129 -0.586,-2.454 -0.705,-3.937 -0.1,-1.274 -0.059,-2.556 0.12,-3.813 0.247,-1.73 0.696,-2.918 1.374,-3.631 0.539,-0.565 1.209,-0.893 1.995,-0.972 0.145,-0.014 0.29,-0.021 0.431,-0.021 0.609,0 1.187,0.137 1.706,0.401 C 2.672,-0.348 3.227,0.04 3.686,0.525 3.685,0.454 3.685,0.384 3.685,0.315 c 0,-0.304 0.199,-0.508 0.497,-0.508 0.297,0 0.498,0.204 0.498,0.508 0,0.607 0.028,1.302 0.086,2.07 l 0.056,0.293 0.005,0.054 c 0,0.07 -0.009,0.135 -0.026,0.195 L 4.885,4.043 C 4.924,4.558 4.954,4.929 4.974,5.16 5.052,6.257 5.082,7.673 5.062,9.383 5.043,9.685 5.028,10.117 5.019,10.671"
             style="fill:#776e64;fill-opacity:1;fill-rule:nonzero;stroke:none"
             id="path46" /></g><g
           id="g48"
           transform="translate(346.1621,231.1738)"><path
             d="m 0,0 c -0.683,1.356 -1.01,3.136 -0.971,5.287 0.038,2.095 0.414,3.866 1.121,5.273 0.563,1.183 1.221,1.784 1.955,1.784 0.127,0 0.259,-0.018 0.421,-0.057 0.306,-0.047 0.518,0.116 0.579,0.396 0.006,0.025 0.01,0.05 0.012,0.075 0.669,-0.099 1.264,-0.522 1.81,-1.281 C 5.757,10.305 6.285,8.632 6.496,6.503 6.707,4.368 6.514,2.484 5.923,0.902 5.29,-0.782 4.382,-1.685 3.149,-1.856 1.776,-2.046 0.749,-1.439 0,0 M 5.724,12.096 C 4.892,13.241 3.903,13.821 2.787,13.821 2.356,13.821 1.902,13.733 1.419,13.554 1.214,13.461 1.097,13.303 1.087,13.117 0.371,12.76 -0.249,12.059 -0.758,11.028 -1.5,9.49 -1.906,7.573 -1.966,5.331 c -0.06,-2.332 0.308,-4.277 1.092,-5.779 0.832,-1.633 2.027,-2.461 3.551,-2.461 0.197,0 0.402,0.013 0.611,0.042 1.6,0.221 2.799,1.369 3.565,3.411 0.641,1.748 0.855,3.782 0.635,6.044 -0.2,2.316 -0.794,4.169 -1.764,5.508"
             style="fill:#776e64;fill-opacity:1;fill-rule:nonzero;stroke:none"
             id="path50" /></g><g
           id="g52"
           transform="translate(364.1035,236.0361)"><path
             d="m 0,0 -0.327,0.281 c -0.108,0.091 -0.246,0.192 -0.418,0.305 l -0.34,0.208 C -1.178,0.864 -1.32,0.955 -1.518,1.07 -1.704,1.177 -1.825,1.25 -1.899,1.301 -2.793,1.83 -3.393,2.356 -3.68,2.867 -4.134,3.668 -4.223,4.8 -3.943,6.23 c 0.082,0.414 0.321,0.73 0.73,0.967 0.43,0.249 0.93,0.362 1.49,0.333 C -1.164,7.502 -0.681,7.344 -0.287,7.059 0.085,6.788 0.282,6.438 0.317,5.97 0.362,5.634 0.597,5.515 0.802,5.515 L 0.851,5.517 C 1.129,5.539 1.31,5.731 1.31,6.024 1.265,6.815 0.937,7.437 0.334,7.871 -0.239,8.284 -0.916,8.517 -1.685,8.562 -2.424,8.583 -3.113,8.42 -3.736,8.076 -4.393,7.713 -4.794,7.148 -4.928,6.401 -5.234,4.729 -5.104,3.371 -4.541,2.362 -4.159,1.693 -3.46,1.051 -2.407,0.399 l 0.059,-0.028 c 0.011,-0.003 0.076,-0.029 0.332,-0.178 0.23,-0.132 0.328,-0.197 0.37,-0.229 0.072,-0.054 0.197,-0.136 0.375,-0.246 0.193,-0.119 0.292,-0.191 0.341,-0.23 0.075,-0.058 0.169,-0.137 0.283,-0.238 0.109,-0.095 0.212,-0.193 0.296,-0.281 C 0.203,-1.67 0.447,-2.559 0.374,-3.676 0.337,-4.385 0.155,-4.993 -0.167,-5.483 -0.488,-5.97 -0.875,-6.287 -1.348,-6.453 l -0.029,-0.013 c -0.405,-0.195 -0.856,-0.205 -1.374,-0.032 -0.535,0.178 -1.036,0.549 -1.503,1.117 -0.055,0.058 -0.115,0.126 -0.179,0.203 -0.074,0.09 -0.128,0.151 -0.155,0.18 -0.001,0.001 -0.014,0.018 -0.034,0.068 -0.024,0.059 -0.044,0.122 -0.055,0.162 -0.041,0.304 -0.264,0.481 -0.567,0.435 -0.294,-0.043 -0.464,-0.274 -0.422,-0.581 0.024,-0.151 0.067,-0.293 0.127,-0.42 0.055,-0.116 0.104,-0.208 0.151,-0.28 l 0.241,-0.292 0.164,-0.171 c 0.564,-0.681 1.214,-1.145 1.932,-1.377 0.354,-0.115 0.701,-0.173 1.033,-0.173 0.353,0 0.697,0.065 1.024,0.195 0.661,0.27 1.212,0.734 1.637,1.381 0.419,0.639 0.663,1.427 0.726,2.342 C 1.451,-2.334 1.12,-1.21 0.392,-0.38 0.278,-0.237 0.141,-0.104 0,0"
             style="fill:#776e64;fill-opacity:1;fill-rule:nonzero;stroke:none"
             id="path54" /></g><g
           id="g56"
           transform="translate(382.1567,232.5879)"><path
             d="M 0,0 C 0.037,0.52 0.141,1.031 0.31,1.521 0.471,1.994 0.785,2.468 1.243,2.93 1.707,3.398 2.293,3.795 2.985,4.109 3.4,4.3 3.924,4.411 4.543,4.439 4.822,4.453 5.088,4.46 5.344,4.46 5.583,4.46 5.812,4.454 6.031,4.442 6.059,3.564 6.058,2.518 6.028,1.323 5.922,1.261 5.841,1.154 5.796,1.01 5.592,0.251 5.147,-0.522 4.473,-1.29 3.626,-2.248 2.814,-2.733 2.059,-2.733 1.968,-2.733 1.877,-2.727 1.78,-2.712 1.062,-2.622 0.55,-2.164 0.208,-1.295 0.034,-0.93 -0.036,-0.494 0,0 M 6.979,5.309 C 6.873,7.166 6.592,8.74 6.144,9.991 5.693,11.215 4.787,11.836 3.449,11.836 3.243,11.836 3.023,11.82 2.79,11.789 1.547,11.597 0.401,11.098 -0.63,10.295 -0.863,10.09 -0.895,9.806 -0.712,9.572 -0.576,9.397 -0.426,9.36 -0.324,9.36 c 0.076,0 0.191,0.022 0.304,0.118 0.878,0.707 1.873,1.144 2.954,1.301 1.187,0.165 1.924,-0.192 2.25,-1.111 C 5.597,8.517 5.862,7.103 5.973,5.46 5.539,5.479 5.041,5.473 4.483,5.439 3.752,5.396 3.108,5.253 2.572,5.014 1.773,4.67 1.092,4.21 0.547,3.647 0,3.084 -0.389,2.491 -0.608,1.887 -0.823,1.294 -0.953,0.679 -0.994,0.055 c -0.043,-0.645 0.056,-1.234 0.285,-1.738 0.471,-1.193 1.262,-1.88 2.355,-2.041 1.174,-0.155 2.375,0.429 3.558,1.738 0.294,0.329 0.552,0.665 0.774,1.003 -0.049,-1.469 -0.074,-2.427 -0.074,-2.855 0,-0.304 0.2,-0.508 0.497,-0.508 0.298,0 0.498,0.204 0.498,0.508 0,0.482 0.035,1.755 0.103,3.787 0.066,1.972 0.073,3.541 0.021,4.669 0.073,0.087 0.112,0.194 0.112,0.314 0,0.151 -0.055,0.281 -0.156,0.377"
             style="fill:#776e64;fill-opacity:1;fill-rule:nonzero;stroke:none"
             id="path58" /></g><g
           id="g60"
           transform="translate(399.3379,244.3232)"><path
             d="M 0,0 C -0.029,0 -0.06,-0.003 -0.078,-0.006 -1.18,-0.115 -2.096,-0.754 -2.803,-1.904 -2.81,-1.83 -2.818,-1.76 -2.826,-1.694 -2.882,-1.07 -2.949,-0.867 -3,-0.76 c -0.125,0.262 -0.335,0.291 -0.42,0.291 -0.08,0 -0.162,-0.021 -0.244,-0.064 -0.257,-0.136 -0.342,-0.396 -0.217,-0.659 0.007,-0.017 0.043,-0.121 0.091,-0.576 0.02,-0.373 0.049,-0.859 0.089,-1.441 0,-0.394 0.01,-0.841 0.029,-1.328 -0.02,-0.296 -0.019,-0.586 0,-0.841 0,-0.049 0.01,-0.097 0.029,-0.143 10e-4,-0.583 0.011,-1.225 0.03,-1.902 v -7.252 c 0,-0.304 0.2,-0.508 0.497,-0.508 0.298,0 0.498,0.204 0.498,0.508 v 7.257 c -0.019,1.088 -0.039,2.032 -0.058,2.835 0.075,0.733 0.3,1.428 0.666,2.062 0.545,0.917 1.217,1.409 2.063,1.503 0.293,0.043 0.463,0.275 0.423,0.576 C 0.438,-0.17 0.256,0 0,0"
             style="fill:#776e64;fill-opacity:1;fill-rule:nonzero;stroke:none"
             id="path62" /></g><g
           id="g64"
           transform="translate(409.2725,230.6309)"><path
             d="m 0,0 c -0.097,0.068 -0.197,0.103 -0.3,0.103 -0.094,0 -0.272,-0.033 -0.412,-0.254 -0.082,-0.137 -0.143,-0.201 -0.182,-0.23 -0.049,-0.016 -0.161,-0.043 -0.396,-0.063 -0.429,-0.047 -0.693,0.109 -0.845,0.524 -0.125,0.337 -0.188,0.908 -0.188,1.696 0,1.301 0.05,3.21 0.147,5.674 0.091,2.294 0.149,4.045 0.172,5.211 0.302,0.018 0.567,0.025 0.795,0.019 0.128,-0.181 0.314,-0.199 0.38,-0.199 0.02,0 0.042,0.002 0.063,0.004 h 0.097 l 0.181,0.033 c 0.079,0.002 0.142,0.011 0.195,0.03 0.066,0.023 0.125,0.059 0.174,0.106 0.167,0.142 0.218,0.352 0.14,0.552 -0.053,0.171 -0.154,0.254 -0.229,0.293 l -0.038,0.032 -0.08,0.023 c -0.422,0.115 -0.98,0.157 -1.673,0.122 -10e-4,0.905 -0.021,1.601 -0.061,2.081 -0.06,0.483 -0.132,0.883 -0.22,1.207 -0.165,0.47 -0.408,0.777 -0.74,0.922 -0.058,0.02 -0.116,0.031 -0.172,0.031 -0.097,0 -0.334,-0.033 -0.448,-0.346 -0.101,-0.276 0.012,-0.535 0.272,-0.649 0.003,-0.003 0.055,-0.051 0.121,-0.26 0.074,-0.255 0.141,-0.605 0.195,-1.028 0.038,-0.443 0.058,-1.125 0.059,-2.031 l -0.478,-0.04 c -0.379,-0.041 -0.686,-0.061 -0.912,-0.061 -0.298,0 -0.497,-0.204 -0.497,-0.508 0,-0.304 0.199,-0.509 0.497,-0.509 0.249,0 0.586,0.022 0.998,0.064 L -3,12.583 C -3.024,11.427 -3.081,9.706 -3.171,7.459 -3.269,4.995 -3.317,3.084 -3.317,1.776 c 0,-0.912 0.082,-1.583 0.253,-2.053 0.289,-0.782 0.855,-1.195 1.637,-1.195 0.083,0 0.169,0.005 0.25,0.014 0.323,0.024 0.567,0.088 0.721,0.182 0.228,0.107 0.43,0.301 0.594,0.572 C 0.3,-0.448 0.245,-0.171 0,0"
             style="fill:#776e64;fill-opacity:1;fill-rule:nonzero;stroke:none"
             id="path66" /></g><g
           id="g68"
           transform="translate(419.5713,237.5635)"><path
             d="m 0,0 h -2.47 c -0.435,0.01 -0.784,0.016 -1.047,0.016 -0.087,0 -0.165,-0.001 -0.234,-0.002 0.11,1.138 0.343,2.177 0.69,3.091 0.596,1.545 1.393,2.521 2.379,2.905 0.44,0.188 0.915,0.094 1.464,-0.283 C 1.331,5.36 1.836,4.778 2.286,3.99 2.738,3.238 3.038,2.468 3.179,1.701 3.301,1.03 3.283,0.494 3.124,0.106 3.108,0.103 3.088,0.097 3.063,0.091 2.891,0.071 2.638,0.051 2.319,0.03 1.789,0.01 1.01,0 0,0 M 3.143,4.502 C 2.611,5.425 2.007,6.124 1.341,6.583 0.518,7.129 -0.277,7.268 -1.021,6.982 -2.295,6.479 -3.292,5.307 -3.987,3.499 -4.588,1.9 -4.862,0.101 -4.803,-1.847 c 0.04,-2.002 0.44,-3.685 1.188,-5.002 0.844,-1.499 1.994,-2.259 3.418,-2.259 0.059,0 0.12,0.002 0.18,0.004 1.506,0.067 2.771,1.155 3.76,3.234 0.126,0.266 0.041,0.526 -0.217,0.661 -0.081,0.043 -0.163,0.064 -0.243,0.064 -0.085,0 -0.296,-0.028 -0.42,-0.289 -0.829,-1.723 -1.805,-2.617 -2.902,-2.654 -1.137,-0.034 -2.021,0.532 -2.715,1.742 -0.661,1.171 -1.016,2.689 -1.054,4.521 -0.014,0.272 -0.017,0.547 -0.01,0.82 0.225,0.006 0.689,0.004 1.34,-0.012 H 0 c 1.009,0 1.806,0.011 2.376,0.032 0.353,0.021 0.62,0.051 0.812,0.092 0.135,0.002 0.243,0.018 0.33,0.048 0.181,0.064 0.307,0.154 0.392,0.286 C 4.258,0.059 4.338,0.876 4.149,1.868 3.986,2.766 3.646,3.653 3.143,4.502"
             style="fill:#776e64;fill-opacity:1;fill-rule:nonzero;stroke:none"
             id="path70" /></g><g
           id="g72"
           transform="translate(434.207,236.0361)"><path
             d="m 0,0 -0.327,0.281 c -0.109,0.091 -0.246,0.192 -0.418,0.304 l -0.341,0.21 C -1.179,0.865 -1.32,0.955 -1.519,1.07 -1.704,1.178 -1.825,1.25 -1.899,1.301 -2.794,1.83 -3.394,2.356 -3.681,2.867 -4.135,3.668 -4.223,4.8 -3.943,6.23 c 0.082,0.414 0.321,0.73 0.73,0.967 0.43,0.249 0.93,0.362 1.49,0.333 C -1.164,7.502 -0.681,7.344 -0.287,7.059 0.085,6.788 0.282,6.438 0.317,5.97 0.362,5.634 0.597,5.515 0.802,5.515 L 0.851,5.517 C 1.13,5.539 1.31,5.731 1.31,6.024 1.265,6.815 0.937,7.437 0.334,7.871 -0.239,8.284 -0.916,8.517 -1.686,8.562 -2.421,8.583 -3.113,8.42 -3.736,8.076 -4.393,7.713 -4.794,7.148 -4.928,6.401 -5.234,4.729 -5.104,3.371 -4.541,2.362 -4.159,1.693 -3.461,1.051 -2.407,0.399 l 0.058,-0.028 c 0.011,-0.003 0.077,-0.029 0.333,-0.178 0.23,-0.132 0.328,-0.197 0.37,-0.229 0.072,-0.054 0.197,-0.136 0.375,-0.246 0.192,-0.119 0.292,-0.191 0.34,-0.23 0.076,-0.058 0.17,-0.137 0.284,-0.237 0.111,-0.098 0.213,-0.195 0.296,-0.282 0.554,-0.639 0.798,-1.528 0.725,-2.645 -0.037,-0.709 -0.219,-1.317 -0.542,-1.807 -0.32,-0.487 -0.706,-0.804 -1.18,-0.97 l -0.029,-0.013 c -0.404,-0.194 -0.856,-0.205 -1.374,-0.032 -0.534,0.178 -1.035,0.549 -1.503,1.117 -0.055,0.058 -0.114,0.126 -0.179,0.203 -0.075,0.09 -0.128,0.151 -0.155,0.18 -0.001,0 -0.014,0.018 -0.034,0.068 -0.024,0.06 -0.045,0.122 -0.055,0.162 -0.042,0.304 -0.265,0.481 -0.567,0.435 -0.294,-0.043 -0.464,-0.274 -0.422,-0.581 0.023,-0.152 0.067,-0.294 0.128,-0.421 0.055,-0.115 0.103,-0.207 0.15,-0.279 l 0.241,-0.292 0.164,-0.171 c 0.564,-0.681 1.213,-1.145 1.932,-1.377 0.354,-0.115 0.701,-0.173 1.033,-0.173 0.353,0 0.697,0.065 1.024,0.195 0.662,0.27 1.213,0.734 1.637,1.381 0.419,0.639 0.664,1.426 0.725,2.342 C 1.451,-2.334 1.119,-1.21 0.392,-0.38 0.277,-0.236 0.141,-0.104 0,0"
             style="fill:#776e64;fill-opacity:1;fill-rule:nonzero;stroke:none"
             id="path74" /></g><g
           id="g76"
           transform="translate(441.9424,232.5879)"><path
             d="M 0,0 C 0.037,0.52 0.142,1.032 0.31,1.521 0.471,1.994 0.785,2.468 1.243,2.93 1.708,3.398 2.294,3.796 2.985,4.109 3.4,4.3 3.925,4.411 4.543,4.439 4.822,4.453 5.089,4.46 5.344,4.46 5.583,4.46 5.813,4.454 6.031,4.442 6.059,3.564 6.058,2.518 6.028,1.323 5.923,1.261 5.842,1.154 5.796,1.01 5.593,0.252 5.147,-0.522 4.474,-1.29 3.627,-2.248 2.814,-2.733 2.059,-2.733 c -0.09,0 -0.181,0.006 -0.279,0.021 -0.718,0.09 -1.229,0.548 -1.571,1.417 C 0.035,-0.93 -0.035,-0.494 0,0 M 6.979,5.309 C 6.873,7.167 6.593,8.741 6.145,9.991 5.693,11.215 4.787,11.836 3.449,11.836 3.243,11.836 3.023,11.82 2.79,11.789 1.548,11.597 0.402,11.098 -0.63,10.295 -0.862,10.09 -0.895,9.807 -0.712,9.571 -0.576,9.397 -0.426,9.36 -0.323,9.36 c 0.075,0 0.19,0.022 0.304,0.118 0.877,0.707 1.872,1.144 2.953,1.301 C 4.12,10.944 4.858,10.587 5.185,9.668 5.597,8.516 5.862,7.102 5.974,5.46 5.539,5.479 5.041,5.473 4.483,5.439 3.753,5.396 3.108,5.253 2.572,5.014 1.772,4.67 1.092,4.21 0.547,3.647 0,3.083 -0.389,2.491 -0.608,1.887 -0.823,1.294 -0.953,0.678 -0.993,0.055 c -0.043,-0.645 0.055,-1.234 0.285,-1.738 0.471,-1.193 1.262,-1.88 2.354,-2.041 1.173,-0.155 2.375,0.429 3.558,1.738 0.294,0.33 0.553,0.665 0.774,1.003 -0.049,-1.469 -0.074,-2.427 -0.074,-2.855 0,-0.304 0.2,-0.508 0.497,-0.508 0.298,0 0.498,0.204 0.498,0.508 0,0.479 0.035,1.753 0.103,3.787 0.066,1.972 0.073,3.541 0.021,4.669 0.073,0.087 0.112,0.194 0.112,0.314 0,0.151 -0.055,0.281 -0.156,0.377"
             style="fill:#776e64;fill-opacity:1;fill-rule:nonzero;stroke:none"
             id="path78" /></g><g
           id="g80"
           transform="translate(462.7998,241.8877)"><path
             d="m 0,0 c -0.403,1.225 -1.041,1.985 -1.896,2.262 -0.763,0.252 -1.611,0.119 -2.507,-0.397 -0.823,-0.479 -1.51,-1.14 -2.05,-1.974 0.008,0.684 0.012,1.295 0.012,1.846 0,0.304 -0.201,0.508 -0.497,0.508 -0.298,0 -0.499,-0.204 -0.499,-0.508 0,-1.15 -0.014,-2.885 -0.044,-5.156 -0.029,-2.244 -0.043,-3.981 -0.043,-5.163 0,-0.237 0.019,-0.569 0.058,-0.982 0.039,-0.53 0.059,-0.867 0.059,-1.016 0.038,-0.742 -0.016,-1.318 -0.163,-1.725 -0.086,-0.268 0.032,-0.513 0.301,-0.623 0.068,-0.027 0.136,-0.041 0.202,-0.041 0.095,0 0.331,0.033 0.463,0.36 0.17,0.514 0.233,1.197 0.192,2.075 0,0.155 -0.02,0.497 -0.061,1.052 -0.038,0.378 -0.057,0.679 -0.057,0.9 0,1.154 0.02,3.029 0.059,5.578 l -0.001,0.01 c 0.055,0.751 0.332,1.513 0.824,2.263 0.493,0.753 1.08,1.333 1.745,1.721 0.63,0.367 1.205,0.469 1.673,0.318 0.554,-0.196 0.98,-0.738 1.263,-1.611 0.325,-1.025 0.533,-2.284 0.62,-3.741 0.087,-1.467 0.108,-2.691 0.06,-3.641 -0.05,-0.96 -0.153,-2.295 -0.31,-3.977 -0.018,-0.271 -0.038,-0.489 -0.056,-0.63 -0.041,-0.3 0.128,-0.531 0.422,-0.576 0.32,-0.047 0.525,0.132 0.568,0.44 0.019,0.169 0.04,0.401 0.059,0.689 0.158,1.699 0.262,3.053 0.311,4.025 0.049,0.989 0.029,2.257 -0.059,3.766 C 0.559,-2.424 0.341,-1.098 0,0"
             style="fill:#776e64;fill-opacity:1;fill-rule:nonzero;stroke:none"
             id="path82" /></g><g
           id="g84"
           transform="translate(469.8887,232.5879)"><path
             d="M 0,0 C 0.037,0.52 0.142,1.032 0.31,1.521 0.471,1.994 0.785,2.468 1.242,2.93 1.708,3.398 2.294,3.796 2.985,4.109 3.4,4.3 3.925,4.411 4.543,4.439 4.821,4.453 5.089,4.46 5.344,4.46 5.582,4.46 5.812,4.454 6.031,4.442 6.059,3.564 6.057,2.518 6.027,1.323 5.923,1.261 5.841,1.154 5.796,1.01 5.592,0.251 5.146,-0.523 4.474,-1.29 3.627,-2.248 2.814,-2.733 2.059,-2.733 c -0.09,0 -0.182,0.006 -0.279,0.021 -0.718,0.09 -1.229,0.548 -1.571,1.417 C 0.034,-0.929 -0.036,-0.493 0,0 M 6.979,5.309 C 6.873,7.167 6.592,8.741 6.144,9.991 5.693,11.215 4.786,11.836 3.449,11.836 3.243,11.836 3.022,11.82 2.79,11.789 1.547,11.597 0.401,11.098 -0.63,10.295 -0.862,10.091 -0.895,9.808 -0.712,9.571 -0.576,9.397 -0.426,9.36 -0.324,9.36 c 0.076,0 0.19,0.022 0.304,0.118 0.878,0.707 1.872,1.144 2.953,1.301 C 4.12,10.944 4.858,10.587 5.184,9.668 5.597,8.516 5.862,7.102 5.973,5.46 5.539,5.479 5.041,5.473 4.482,5.439 3.752,5.396 3.108,5.253 2.572,5.014 1.773,4.67 1.092,4.21 0.547,3.647 0,3.084 -0.389,2.491 -0.608,1.887 -0.823,1.295 -0.953,0.679 -0.994,0.055 c -0.042,-0.646 0.056,-1.235 0.285,-1.738 0.471,-1.193 1.262,-1.88 2.355,-2.041 1.173,-0.156 2.375,0.429 3.557,1.738 0.295,0.329 0.554,0.664 0.775,1.003 -0.05,-1.467 -0.075,-2.425 -0.075,-2.855 0,-0.304 0.201,-0.508 0.498,-0.508 0.298,0 0.497,0.204 0.497,0.508 0,0.476 0.036,1.75 0.104,3.786 0.065,1.973 0.073,3.542 0.021,4.67 0.073,0.087 0.112,0.194 0.112,0.314 0,0.151 -0.055,0.281 -0.156,0.377"
             style="fill:#776e64;fill-opacity:1;fill-rule:nonzero;stroke:none"
             id="path86" /></g><g
           id="g88"
           transform="translate(483.9805,239.1621)"><path
             d="M 0,0 C 0,0.233 0.03,1.556 0.177,6.532 0.235,9.176 0.195,11.386 0.056,13.117 0.014,13.42 -0.19,13.599 -0.512,13.552 -0.806,13.507 -0.975,13.275 -0.936,12.991 -0.799,11.331 -0.76,9.162 -0.818,6.548 -0.937,2.472 -0.995,0.33 -0.995,0 c 0,-1.075 0.069,-2.697 0.207,-4.821 0.136,-2.121 0.206,-3.72 0.206,-4.754 0,-0.304 0.199,-0.508 0.497,-0.508 0.297,0 0.497,0.204 0.497,0.508 0,1.076 -0.069,2.698 -0.207,4.822 C 0.069,-2.647 0,-1.048 0,0"
             style="fill:#776e64;fill-opacity:1;fill-rule:nonzero;stroke:none"
             id="path90" /></g><g
           id="g92"
           transform="translate(494.4785,237.5635)"><path
             d="m 0,0 h -2.47 c -0.435,0.01 -0.784,0.016 -1.046,0.016 -0.088,0 -0.166,-0.001 -0.234,-0.002 0.11,1.139 0.343,2.178 0.69,3.091 0.595,1.545 1.392,2.521 2.378,2.905 C -0.243,6.198 0.231,6.105 0.781,5.726 1.33,5.36 1.835,4.778 2.285,3.99 2.736,3.239 3.036,2.469 3.178,1.701 3.301,1.029 3.282,0.494 3.123,0.106 3.106,0.103 3.087,0.097 3.062,0.091 2.89,0.071 2.637,0.051 2.317,0.03 1.788,0.01 1.009,0 0,0 M 3.141,4.502 C 2.61,5.425 2.006,6.123 1.34,6.583 0.517,7.129 -0.278,7.268 -1.021,6.982 -2.294,6.479 -3.292,5.307 -3.987,3.498 -4.588,1.899 -4.861,0.1 -4.802,-1.847 c 0.04,-2.003 0.44,-3.685 1.188,-5.002 0.843,-1.499 1.993,-2.259 3.417,-2.259 0.059,0 0.12,0.002 0.18,0.004 1.505,0.067 2.77,1.155 3.759,3.234 0.125,0.266 0.04,0.526 -0.217,0.661 -0.081,0.043 -0.163,0.064 -0.243,0.064 -0.085,0 -0.297,-0.028 -0.42,-0.289 -0.829,-1.723 -1.805,-2.617 -2.901,-2.654 -1.141,-0.034 -2.021,0.532 -2.715,1.742 -0.66,1.171 -1.015,2.689 -1.054,4.521 -0.013,0.271 -0.017,0.547 -0.009,0.82 0.225,0.006 0.689,0.004 1.34,-0.012 H 0 c 1.007,0 1.805,0.011 2.375,0.032 0.354,0.021 0.619,0.051 0.813,0.092 0.133,0.002 0.241,0.018 0.329,0.048 0.182,0.065 0.308,0.155 0.391,0.286 0.349,0.618 0.429,1.434 0.24,2.427 C 3.984,2.766 3.646,3.653 3.141,4.502"
             style="fill:#776e64;fill-opacity:1;fill-rule:nonzero;stroke:none"
             id="path94" /></g><g
           id="g96"
           transform="translate(509.5049,235.6553)"><path
             d="m 0,0 c -0.114,0.144 -0.251,0.276 -0.392,0.381 l -0.327,0.281 c -0.107,0.09 -0.246,0.191 -0.418,0.305 l -0.341,0.209 c -0.092,0.07 -0.234,0.16 -0.432,0.275 -0.187,0.108 -0.307,0.18 -0.381,0.231 -0.895,0.528 -1.493,1.055 -1.781,1.566 -0.454,0.801 -0.542,1.933 -0.263,3.363 0.082,0.413 0.32,0.73 0.731,0.967 0.429,0.249 0.929,0.361 1.489,0.333 0.559,-0.028 1.042,-0.186 1.436,-0.472 0.372,-0.269 0.57,-0.62 0.605,-1.088 C -0.029,6.015 0.205,5.896 0.41,5.896 L 0.459,5.897 C 0.737,5.92 0.918,6.112 0.917,6.405 0.873,7.196 0.545,7.817 -0.058,8.252 -0.631,8.665 -1.308,8.897 -2.077,8.942 -2.812,8.964 -3.505,8.801 -4.128,8.457 -4.785,8.094 -5.187,7.529 -5.32,6.782 -5.626,5.109 -5.496,3.752 -4.933,2.743 -4.551,2.074 -3.853,1.433 -2.799,0.78 L -2.74,0.752 c 0.014,-0.005 0.082,-0.032 0.332,-0.178 0.241,-0.138 0.335,-0.203 0.37,-0.229 0.073,-0.054 0.197,-0.136 0.375,-0.246 0.191,-0.12 0.292,-0.191 0.34,-0.229 0.075,-0.059 0.171,-0.139 0.284,-0.238 0.111,-0.098 0.214,-0.195 0.296,-0.282 0.554,-0.639 0.798,-1.528 0.725,-2.645 -0.037,-0.709 -0.219,-1.317 -0.542,-1.808 -0.321,-0.486 -0.707,-0.803 -1.179,-0.969 L -1.77,-6.085 c -0.404,-0.194 -0.856,-0.205 -1.373,-0.032 -0.534,0.178 -1.035,0.549 -1.503,1.117 -0.054,0.058 -0.115,0.126 -0.178,0.202 -0.075,0.091 -0.129,0.152 -0.156,0.181 0,0 -0.013,0.016 -0.034,0.068 -0.024,0.06 -0.045,0.122 -0.055,0.163 -0.045,0.325 -0.275,0.441 -0.475,0.441 -0.029,0 -0.06,-0.002 -0.092,-0.007 -0.294,-0.043 -0.464,-0.275 -0.422,-0.581 0.024,-0.152 0.067,-0.293 0.127,-0.421 0.056,-0.115 0.106,-0.209 0.151,-0.278 l 0.241,-0.293 0.164,-0.171 c 0.563,-0.681 1.214,-1.145 1.933,-1.377 0.353,-0.115 0.701,-0.173 1.033,-0.173 0.352,0 0.696,0.065 1.023,0.195 0.661,0.27 1.212,0.734 1.637,1.381 0.419,0.639 0.663,1.426 0.726,2.342 C 1.06,-1.953 0.728,-0.829 0,0"
             style="fill:#776e64;fill-opacity:1;fill-rule:nonzero;stroke:none"
             id="path98" /></g><g
           id="g100"
           transform="translate(262.2036,310.0317)"><path
             d="m 0,0 c -0.532,-0.399 -0.977,-0.888 -1.331,-1.463 -0.355,-0.579 -0.644,-1.154 -0.864,-1.73 -0.223,-0.578 -0.333,-0.998 -0.333,-1.265 0,-0.709 0.176,-1.462 0.532,-2.26 0.354,-0.799 1.152,-1.287 2.395,-1.464 0.709,-0.179 1.641,0.087 2.794,0.798 1.152,0.709 1.774,1.817 1.864,3.326 0,0.886 -0.2,1.817 -0.599,2.794 C 4.059,-0.289 3.193,0.287 1.863,0.466 1.152,0.553 0.532,0.399 0,0"
             style="fill:#91aba1;fill-opacity:1;fill-rule:nonzero;stroke:none"
             id="path102" /></g><g
           id="g104"
           transform="translate(256.8813,253.8828)"><path
             d="m 0,0 c -0.087,-1.996 -0.266,-3.926 -0.532,-5.788 -0.266,-1.949 -0.798,-4.191 -1.597,-6.719 -0.798,-2.528 -1.863,-4.9 -3.193,-7.119 -1.33,-2.216 -2.905,-4.058 -4.723,-5.521 -1.818,-1.464 -3.88,-2.063 -6.187,-1.796 -2.306,0.265 -4.08,0.82 -5.323,1.663 -1.241,0.843 -2.129,1.752 -2.661,2.727 -0.532,0.977 -0.798,1.929 -0.798,2.861 v 2.196 c 0.089,2.128 0.91,4.347 2.461,6.652 1.553,2.308 3.549,4.524 5.988,6.653 2.44,2.128 5.123,4.081 8.05,5.854 2.927,1.775 5.81,3.239 8.648,4.391 C 0.133,4.015 0.087,1.996 0,0 m -23.283,28.008 c -0.443,1.863 -0.487,3.946 -0.134,6.254 0.356,2.305 0.911,4.457 1.664,6.453 0.754,1.996 1.576,3.636 2.461,4.923 0.886,1.285 1.684,1.883 2.395,1.797 0.62,-0.09 1.019,-0.446 1.197,-1.065 0.178,-0.622 0.221,-1.376 0.134,-2.263 -0.09,-0.887 -0.312,-1.862 -0.665,-2.926 -0.356,-1.065 -0.711,-2.129 -1.065,-3.194 -0.622,-1.596 -1.53,-3.349 -2.727,-5.256 -1.198,-1.908 -2.283,-3.482 -3.26,-4.723 M 11.31,10.312 9.713,11.643 c -1.33,0.088 -2.927,-0.044 -4.79,-0.4 0,1.952 -0.023,3.792 -0.066,5.522 -0.046,1.73 -0.067,3.26 -0.067,4.59 v 4.258 c 0,1.684 0.133,3.37 0.399,5.056 0.177,1.508 0.466,3.127 0.865,4.856 0.399,1.731 0.952,3.437 1.663,5.123 0.266,0.533 0.177,0.975 -0.266,1.331 -0.445,0.353 -0.954,0.62 -1.53,0.798 -0.578,0.177 -1.153,0.244 -1.73,0.2 -0.578,-0.046 -0.91,-0.2 -0.998,-0.465 L 3.061,42.645 C 2.328,40.813 1.771,38.837 1.372,36.733 0.944,35.999 0.492,35.226 0.001,34.395 -1.153,32.442 -2.506,30.558 -4.057,28.74 -5.61,26.921 -7.362,25.368 -9.313,24.083 c -1.952,-1.287 -4.125,-1.93 -6.52,-1.93 -2.128,0 -3.858,0.576 -5.189,1.731 0.977,1.151 2.175,2.838 3.593,5.055 1.418,2.216 2.661,4.701 3.725,7.452 0.443,1.151 0.932,2.416 1.464,3.792 0.532,1.374 0.886,2.727 1.065,4.058 0.176,1.33 0.066,2.595 -0.333,3.792 -0.399,1.197 -1.31,2.238 -2.728,3.126 -1.775,1.152 -3.505,1.264 -5.189,0.333 -1.684,-0.931 -3.148,-2.394 -4.391,-4.39 -1.241,-1.997 -2.262,-4.192 -3.06,-6.586 -0.798,-2.396 -1.241,-4.481 -1.331,-6.254 -0.087,-1.776 0,-3.639 0.267,-5.589 0.266,-1.951 0.864,-3.748 1.796,-5.389 0.931,-1.642 2.285,-3.016 4.058,-4.124 1.775,-1.11 4.168,-1.709 7.185,-1.797 2.482,0 4.79,0.733 6.919,2.196 2.128,1.463 3.991,3.128 5.588,4.989 1.087,1.268 2.007,2.504 2.786,3.71 C 0.373,27.931 0.349,27.605 0.333,27.276 0.2,24.482 0.133,21.621 0.133,18.694 V 9.912 c -3.014,-1.064 -6.208,-2.527 -9.58,-4.391 -3.37,-1.862 -6.474,-3.991 -9.314,-6.386 -2.838,-2.395 -5.255,-4.989 -7.251,-7.783 -1.996,-2.795 -3.081,-5.656 -3.26,-8.582 -0.177,-3.726 0.954,-6.741 3.393,-9.048 2.441,-2.306 5.655,-3.503 9.647,-3.593 1.243,0 2.816,0.223 4.723,0.666 1.908,0.444 3.838,1.376 5.788,2.793 1.952,1.421 3.792,3.482 5.521,6.187 1.73,2.707 3.081,6.321 4.059,10.844 0.353,1.776 0.599,4.215 0.732,7.318 0.133,3.107 0.243,6.343 0.332,9.713 1.331,0.356 2.572,0.579 3.726,0.666 1.152,0.089 2.216,0.045 3.193,-0.133 0.443,0.266 0.553,0.598 0.333,0.998 -0.223,0.399 -0.512,0.777 -0.865,1.131"
             style="fill:#91aba1;fill-opacity:1;fill-rule:nonzero;stroke:none"
             id="path106" /></g><g
           id="g108"
           transform="translate(278.834,281.8906)"><path
             d="m 0,0 c -0.443,1.863 -0.487,3.946 -0.133,6.254 0.355,2.306 0.91,4.457 1.663,6.453 0.755,1.996 1.576,3.636 2.462,4.923 0.885,1.285 1.683,1.884 2.394,1.797 0.62,-0.09 1.019,-0.446 1.197,-1.065 C 7.761,17.74 7.804,16.986 7.717,16.1 7.627,15.212 7.405,14.237 7.052,13.173 6.696,12.108 6.341,11.044 5.987,9.979 5.365,8.383 4.457,6.63 3.259,4.724 2.062,2.815 0.977,1.241 0,0 M 27.143,12.108 C 26.788,12.195 26.478,11.976 26.211,11.442 25.413,10.022 24.436,8.337 23.284,6.387 22.131,4.435 20.777,2.55 19.226,0.732 17.673,-1.087 15.92,-2.64 13.971,-3.925 12.019,-5.212 9.846,-5.854 7.451,-5.854 c -2.129,0 -3.859,0.576 -5.19,1.73 0.978,1.151 2.176,2.838 3.593,5.056 1.418,2.215 2.661,4.7 3.726,7.451 0.443,1.151 0.931,2.416 1.463,3.792 0.533,1.374 0.886,2.727 1.065,4.058 0.176,1.33 0.066,2.595 -0.333,3.792 -0.399,1.198 -1.31,2.239 -2.728,3.126 -1.775,1.152 -3.505,1.265 -5.189,0.333 -1.684,-0.931 -3.148,-2.394 -4.39,-4.39 -1.241,-1.996 -2.262,-4.192 -3.061,-6.586 -0.798,-2.396 -1.241,-4.481 -1.33,-6.254 -0.088,-1.775 0,-3.639 0.266,-5.589 0.266,-1.951 0.865,-3.748 1.796,-5.389 0.931,-1.642 2.285,-3.016 4.058,-4.124 1.776,-1.11 4.168,-1.709 7.185,-1.797 2.482,0 4.79,0.733 6.919,2.196 2.129,1.464 3.991,3.128 5.588,4.989 1.597,1.863 2.861,3.66 3.793,5.39 0.931,1.729 1.529,2.814 1.796,3.259 0.709,1.332 1.151,2.505 1.33,3.526 0.177,1.019 0.2,1.818 0.067,2.395 -0.133,0.577 -0.378,0.91 -0.732,0.998"
             style="fill:#91aba1;fill-opacity:1;fill-rule:nonzero;stroke:none"
             id="path110" /></g><g
           id="g112"
           transform="translate(561.207,251.2881)"><path
             d="m 0,0 c -0.09,-3.46 -0.532,-7.584 -1.33,-12.374 -0.179,-1.151 -0.533,-2.728 -1.066,-4.724 -0.531,-1.995 -1.219,-3.968 -2.062,-5.921 -0.844,-1.95 -1.861,-3.635 -3.06,-5.055 -1.197,-1.418 -2.593,-2.04 -4.191,-1.863 -2.041,0.178 -3.393,1.596 -4.059,4.257 -0.665,2.661 -0.286,6.786 1.132,12.374 0.443,1.687 1.131,3.527 2.063,5.522 0.93,1.996 2.039,3.992 3.326,5.988 1.284,1.995 2.682,3.925 4.191,5.788 1.507,1.862 3.06,3.505 4.657,4.923 C -0.046,6.433 0.088,3.46 0,0 m -110.299,42.578 c -0.444,1.151 -0.555,2.349 -0.332,3.592 0.221,1.241 0.908,1.907 2.062,1.996 0.798,0.088 1.418,-0.245 1.863,-0.998 0.443,-0.754 0.775,-1.709 0.998,-2.86 0.22,-1.155 0.354,-2.442 0.398,-3.859 0.044,-1.42 0.068,-2.707 0.068,-3.859 -2.661,1.684 -4.347,3.68 -5.057,5.988 m 3.061,-13.905 c -0.533,-1.02 -1.111,-1.951 -1.73,-2.794 -0.621,-0.844 -1.331,-1.509 -2.129,-1.995 -0.799,-0.489 -1.596,-0.689 -2.395,-0.6 -1.064,0.088 -1.908,0.421 -2.528,0.998 -0.621,0.576 -1.064,1.309 -1.331,2.197 -0.265,0.884 -0.421,1.795 -0.465,2.727 -0.046,0.931 -0.067,1.75 -0.067,2.461 0,0.619 0.133,1.441 0.4,2.462 0.266,1.018 0.598,1.996 0.998,2.927 0.398,0.931 0.819,1.797 1.263,2.594 0.443,0.799 0.842,1.331 1.198,1.597 0.532,-1.42 1.285,-2.84 2.262,-4.258 0.533,-0.976 1.308,-1.908 2.328,-2.794 1.019,-0.887 2.15,-1.686 3.393,-2.394 -0.266,-1.065 -0.665,-2.109 -1.197,-3.128 M 8.316,16.565 c -0.489,0.4 -1.044,0.556 -1.663,0.466 -1.509,-0.443 -2.998,-1.108 -4.467,-1.996 -0.604,1.952 -1.296,3.504 -2.078,4.657 -0.782,1.152 -1.528,2.039 -2.237,2.662 1.412,1.773 2.742,4.211 3.992,7.318 1.247,3.103 2.002,6.474 2.262,10.111 0.354,3.637 -0.14,6.364 -1.48,8.184 -1.341,1.816 -3.198,2.86 -5.572,3.127 -1.51,0.176 -2.907,-0.245 -4.191,-1.265 -1.287,-1.02 -2.418,-2.195 -3.394,-3.525 -1.064,-1.598 -2.041,-3.416 -2.926,-5.456 -0.179,-0.445 -0.312,-0.844 -0.4,-1.198 -0.058,-0.263 -0.071,-0.479 -0.062,-0.675 -2.859,-4.903 -5.389,-8.384 -7.587,-10.435 -2.617,-2.44 -4.947,-3.658 -6.986,-3.658 -2.217,0 -3.681,0.731 -4.39,2.195 -0.711,1.463 -1.044,3.104 -0.998,4.923 0.044,1.816 0.509,4.191 1.397,7.118 0.087,0.532 -0.112,0.998 -0.599,1.398 -0.489,0.399 -1.043,0.686 -1.663,0.865 -0.622,0.176 -1.197,0.243 -1.73,0.199 -0.532,-0.046 -0.844,-0.246 -0.932,-0.599 -0.178,-0.797 -0.531,-2.128 -1.064,-3.992 -0.532,-1.862 -1.22,-3.725 -2.062,-5.588 -0.844,-1.863 -1.819,-3.505 -2.927,-4.922 -1.111,-1.42 -2.286,-2.129 -3.527,-2.129 -0.798,0 -1.463,0.352 -1.995,1.064 -0.532,0.709 -0.911,1.64 -1.131,2.794 -0.222,1.151 -0.289,2.482 -0.2,3.991 0.087,1.507 0.31,3.015 0.665,4.525 0.354,1.506 0.843,2.97 1.464,4.39 0.62,1.418 1.331,2.683 2.13,3.792 0.798,1.109 1.662,1.973 2.594,2.595 0.931,0.619 1.883,0.932 2.861,0.932 1.151,-0.09 1.995,-0.423 2.527,-0.998 0.532,-0.579 0.886,-1.221 1.065,-1.93 0.266,-0.888 0.31,-1.819 0.134,-2.794 0.265,-0.089 0.531,-0.199 0.797,-0.333 0.266,-0.133 0.533,-0.155 0.798,-0.066 0.267,0.087 0.554,0.31 0.865,0.665 0.31,0.353 0.599,0.975 0.866,1.863 0,0.177 0.02,0.665 0.066,1.464 0.044,0.798 -0.134,1.639 -0.532,2.527 -0.4,0.886 -1.088,1.685 -2.063,2.396 -0.977,0.709 -2.441,1.107 -4.39,1.197 -1.065,0 -2.329,-0.332 -3.792,-0.998 -1.464,-0.665 -2.907,-1.73 -4.324,-3.194 -1.421,-1.462 -2.708,-3.348 -3.86,-5.654 -0.664,-1.329 -1.191,-2.793 -1.59,-4.385 -0.279,-0.474 -0.567,-0.963 -0.87,-1.469 -1.11,-1.864 -2.328,-3.639 -3.658,-5.323 -1.331,-1.686 -2.773,-3.127 -4.325,-4.324 -1.553,-1.198 -3.126,-1.796 -4.723,-1.796 -2.661,0 -4.325,1.019 -4.99,3.06 -0.665,2.04 -0.954,4.478 -0.864,7.318 0,1.418 0.087,2.528 0.265,3.326 0.177,0.798 0.376,1.464 0.599,1.996 0.221,0.533 0.443,1.019 0.665,1.464 0.221,0.443 0.377,1.064 0.466,1.863 0.088,0.798 0.11,1.463 0.066,1.996 -0.046,0.532 -0.155,1.064 -0.332,1.595 -0.179,0.534 -0.488,0.932 -0.932,1.199 -0.797,0.442 -1.552,0.665 -2.261,0.665 -0.712,0 -1.354,-0.089 -1.93,-0.266 -0.577,-0.179 -1.087,-0.399 -1.529,-0.666 -0.446,-0.266 -0.755,-0.444 -0.932,-0.532 -0.179,-0.089 -0.466,-0.179 -0.865,-0.266 -0.4,-0.09 -0.732,0.044 -0.998,0.4 -0.356,0.353 -0.333,0.819 0.066,1.396 0.4,0.576 0.6,1.175 0.6,1.796 0,0.267 -0.046,0.62 -0.134,1.064 -0.09,0.444 -0.245,0.887 -0.466,1.331 -0.221,0.443 -0.532,0.865 -0.931,1.264 -0.399,0.399 -0.865,0.599 -1.397,0.599 -0.532,0.087 -1.044,-0.133 -1.53,-0.665 -0.488,-0.532 -0.888,-1.221 -1.197,-2.063 -0.313,-0.843 -0.555,-1.796 -0.733,-2.86 -0.178,-1.065 -0.265,-2.129 -0.265,-3.193 0,-0.711 -0.09,-1.464 -0.267,-2.262 -0.179,-0.798 -0.356,-1.554 -0.532,-2.262 -0.179,-0.712 -0.356,-1.31 -0.532,-1.797 -0.178,-0.488 -0.266,-0.777 -0.266,-0.864 -0.179,-0.445 -0.179,-0.821 0,-1.131 0.001,-0.001 0.001,-0.002 0.002,-0.003 -0.498,-0.682 -1.07,-1.327 -1.73,-1.927 -0.798,-0.71 -1.797,-1.376 -2.994,-1.996 -1.197,-0.621 -2.552,-0.887 -4.057,-0.797 -1.066,0 -2.263,0.22 -3.593,0.665 0.087,0.442 0.153,0.841 0.199,1.197 0.044,0.353 0.066,0.753 0.066,1.198 0.266,2.927 0.155,5.389 -0.332,7.385 -0.489,1.995 -1.177,3.612 -2.063,4.855 -0.887,1.242 -1.842,2.129 -2.86,2.662 -1.021,0.532 -1.975,0.752 -2.861,0.664 -1.863,-0.177 -3.26,-0.731 -4.191,-1.663 -0.932,-0.93 -1.53,-2.061 -1.796,-3.392 -0.532,-0.179 -0.978,-0.356 -1.331,-0.532 -0.355,-0.179 -0.755,-0.533 -1.197,-1.065 -0.798,-0.976 -1.686,-2.484 -2.662,-4.523 -0.649,-1.359 -1.198,-3.238 -1.65,-5.615 -1.045,-1.883 -2.305,-3.717 -3.805,-5.496 -1.685,-1.996 -3.68,-3.681 -5.985,-5.055 -2.307,-1.377 -4.966,-2.064 -7.978,-2.064 -3.904,0.088 -6.541,1.066 -7.915,2.928 -1.376,1.863 -1.974,4.79 -1.795,8.781 0.086,2.04 0.442,3.969 1.063,5.788 0.62,1.818 1.418,3.394 2.395,4.724 0.975,1.331 2.083,2.394 3.325,3.193 1.24,0.799 2.481,1.152 3.723,1.065 0.886,-0.089 1.507,-0.4 1.863,-0.932 0.353,-0.532 0.508,-1.177 0.465,-1.929 -0.045,-0.755 -0.222,-1.552 -0.532,-2.394 -0.311,-0.845 -0.731,-1.577 -1.263,-2.196 -0.445,-0.533 -0.732,-1.198 -0.865,-1.997 -0.133,-0.797 -0.023,-1.33 0.332,-1.595 0.709,-0.446 1.397,-0.533 2.062,-0.267 0.665,0.267 1.174,0.619 1.529,1.065 0.709,0.709 1.485,1.64 2.327,2.794 0.842,1.151 1.264,2.749 1.264,4.79 0,1.95 -0.599,3.546 -1.796,4.79 -1.196,1.241 -2.948,1.905 -5.253,1.995 -2.483,0.087 -4.7,-0.511 -6.649,-1.795 -1.951,-1.287 -3.592,-2.928 -4.923,-4.924 -1.33,-1.995 -2.374,-4.214 -3.126,-6.652 -0.754,-2.442 -1.177,-4.724 -1.264,-6.853 -0.176,-4.436 1.108,-7.983 3.859,-10.644 2.748,-2.662 6.252,-3.905 10.508,-3.726 3.723,0.088 6.936,0.932 9.641,2.528 2.704,1.597 4.942,3.347 6.718,5.256 0.528,0.568 1.013,1.127 1.462,1.679 0.022,-0.182 0.039,-0.36 0.068,-0.548 0.223,-1.42 0.622,-2.773 1.197,-4.059 0.577,-1.287 1.398,-2.394 2.462,-3.326 1.065,-0.931 2.395,-1.442 3.992,-1.53 3.37,-0.179 6.053,0.865 8.049,3.127 1.996,2.262 3.481,4.9 4.458,7.917 h 0.533 c 3.103,-0.445 5.698,-0.267 7.783,0.532 2.083,0.798 3.746,1.774 4.989,2.927 1.418,1.331 2.528,2.882 3.327,4.657 0.22,0.881 0.336,1.625 0.348,2.233 0.234,0.547 0.389,1.007 0.449,1.359 0.177,0.709 0.619,0.952 1.33,0.732 0.709,-0.221 1.507,-0.332 2.396,-0.332 0.442,0 0.798,0.111 1.063,0.332 0.267,0.22 0.487,0.42 0.666,0.599 0.177,0.177 0.376,0.287 0.599,0.333 0.22,0.044 0.509,-0.066 0.864,-0.333 0.267,-0.179 0.333,-0.465 0.2,-0.864 -0.134,-0.4 -0.289,-0.978 -0.466,-1.731 -0.178,-0.754 -0.378,-1.663 -0.598,-2.727 -0.223,-1.065 -0.289,-2.352 -0.199,-3.859 0,-0.621 0.086,-1.642 0.265,-3.06 0.177,-1.42 0.599,-2.861 1.264,-4.324 0.665,-1.463 1.707,-2.794 3.127,-3.992 1.418,-1.198 3.37,-1.841 5.854,-1.929 v 0.132 c 2.306,-0.178 4.435,0.4 6.387,1.731 1.95,1.331 3.659,2.86 5.122,4.59 0.699,0.826 1.327,1.639 1.894,2.444 0.035,-1.079 0.154,-2.054 0.367,-2.91 0.487,-1.952 1.175,-3.459 2.062,-4.523 0.886,-1.065 1.818,-1.776 2.794,-2.129 0.976,-0.356 1.774,-0.533 2.396,-0.533 1.151,-0.089 2.305,0.333 3.46,1.264 1.15,0.932 2.172,1.93 3.059,2.994 0.975,1.241 1.951,2.704 2.928,4.391 0.266,-1.51 0.798,-2.84 1.596,-3.991 0.709,-0.978 1.64,-1.91 2.795,-2.795 1.151,-0.888 2.749,-1.287 4.79,-1.198 1.862,0 3.702,0.643 5.521,1.93 1.817,1.285 3.481,2.772 4.989,4.457 1.508,1.684 2.816,3.37 3.926,5.057 1.109,1.683 1.883,2.97 2.328,3.858 v 0.133 c 0.768,1.533 1.23,2.823 1.408,3.886 0.608,1.208 1.247,2.27 1.918,3.166 0.709,0.975 1.463,1.84 2.261,2.594 0.799,0.753 1.641,1.086 2.529,0.999 1.151,-0.179 2.06,-0.888 2.722,-2.129 0.662,-1.244 0.907,-3.15 0.737,-5.722 -0.089,-1.065 -0.289,-2.285 -0.599,-3.659 -0.312,-1.376 -0.688,-2.728 -1.131,-4.058 -0.445,-1.331 -0.932,-2.552 -1.464,-3.659 -0.524,-1.096 -1.05,-1.95 -1.575,-2.567 -1.464,0.399 -2.778,0.17 -3.946,-0.693 -1.198,-0.888 -1.842,-1.73 -1.93,-2.528 -0.089,-0.977 0.42,-1.709 1.53,-2.195 1.109,-0.489 2.462,-0.379 4.059,0.333 l 0.399,0.398 c 0.708,-0.532 1.418,-1.376 2.129,-2.527 0.708,-1.153 1.33,-2.749 1.863,-4.79 -1.597,-1.242 -3.194,-2.617 -4.79,-4.125 -1.597,-1.508 -3.084,-3.081 -4.458,-4.724 -1.376,-1.641 -2.617,-3.326 -3.725,-5.056 -1.11,-1.729 -1.93,-3.393 -2.462,-4.99 -2.306,-6.208 -3.48,-11.153 -3.525,-14.835 -0.044,-3.681 0.444,-6.497 1.462,-8.449 1.021,-1.95 2.263,-3.26 3.726,-3.926 1.464,-0.665 2.595,-1.041 3.394,-1.131 0.974,-0.176 2.149,0.09 3.526,0.799 1.373,0.711 2.77,1.886 4.19,3.525 1.418,1.643 2.695,3.86 3.826,6.654 1.13,2.794 2,6.186 2.603,10.179 0.86,5.766 1.27,10.667 1.229,14.703 -0.044,4.037 -0.325,7.429 -0.84,10.177 2.195,1.51 4.226,2.13 6.089,1.864 0.443,0 0.665,0.199 0.665,0.598 0,0.4 -0.133,0.845 -0.399,1.331 -0.266,0.489 -0.644,0.931 -1.131,1.33"
             style="fill:#91aba1;fill-opacity:1;fill-rule:nonzero;stroke:none"
             id="path114" /></g><g
           id="g116"
           transform="translate(591.0098,309.5659)"><path
             d="M 0,0 C 1.152,-0.887 2.35,0 3.593,2.661 3.859,3.37 4.212,4.146 4.657,4.99 5.1,5.832 5.543,6.653 5.988,7.452 l 1.463,2.926 c 0.267,0.353 0.486,0.709 0.666,1.065 0.353,0.798 0.132,1.73 -0.666,2.794 -0.798,0.975 -1.42,1.441 -1.862,1.397 C 5.144,15.588 4.567,14.99 3.859,13.838 3.681,13.572 3.347,12.906 2.861,11.842 2.372,10.777 1.863,9.624 1.331,8.383 0.799,7.139 0.31,6.008 -0.133,4.99 -0.577,3.969 -0.844,3.37 -0.932,3.193 -1.021,3.015 -1.021,2.549 -0.932,1.796 -0.844,1.042 -0.532,0.443 0,0"
             style="fill:#91aba1;fill-opacity:1;fill-rule:nonzero;stroke:none"
             id="path118" /></g><g
           id="g120"
           transform="translate(585.6885,293.8662)"><path
             d="M 0,0 C -0.445,1.151 -0.556,2.349 -0.333,3.592 -0.113,4.833 0.575,5.499 1.729,5.588 2.527,5.676 3.146,5.343 3.592,4.59 4.034,3.836 4.367,2.881 4.59,1.729 4.811,0.575 4.943,-0.712 4.989,-2.129 5.032,-3.549 5.056,-4.836 5.056,-5.988 2.395,-4.304 0.708,-2.309 0,0 m 3.06,-13.905 c -0.533,-1.02 -1.111,-1.951 -1.73,-2.794 -0.622,-0.844 -1.33,-1.509 -2.129,-1.995 -0.798,-0.49 -1.597,-0.689 -2.395,-0.6 -1.065,0.088 -1.909,0.421 -2.529,0.998 -0.621,0.576 -1.063,1.309 -1.33,2.196 -0.266,0.885 -0.422,1.796 -0.466,2.728 -0.045,0.931 -0.066,1.75 -0.066,2.461 0,0.619 0.134,1.441 0.399,2.462 0.266,1.018 0.599,1.996 0.999,2.927 0.398,0.931 0.819,1.796 1.263,2.594 0.444,0.799 0.842,1.331 1.197,1.597 0.533,-1.42 1.286,-2.84 2.263,-4.258 0.531,-0.976 1.308,-1.908 2.328,-2.794 1.019,-0.888 2.151,-1.686 3.393,-2.394 -0.266,-1.065 -0.665,-2.109 -1.197,-3.128 m 66.592,12.774 c -0.132,0.575 -0.378,0.908 -0.732,0.998 -0.356,0.087 -0.665,-0.134 -0.931,-0.666 -0.799,-1.42 -1.753,-3.126 -2.861,-5.123 -1.109,-1.995 -2.395,-3.881 -3.858,-5.654 -1.464,-1.776 -3.083,-3.26 -4.857,-4.457 -1.775,-1.197 -3.682,-1.709 -5.721,-1.53 -1.776,0.087 -3.061,0.665 -3.859,1.729 -0.798,1.064 -1.31,2.35 -1.53,3.858 -0.222,1.508 -0.222,3.127 0,4.857 0.22,1.73 0.466,3.393 0.732,4.99 0.266,1.596 0.466,2.971 0.599,4.125 0.133,1.151 0.02,1.906 -0.333,2.262 C 45.236,5.499 44.105,6.164 42.908,6.253 41.71,6.341 40.8,5.632 40.181,4.124 39.825,3.413 39.249,1.996 38.45,-0.133 c -0.798,-2.13 -1.685,-4.325 -2.66,-6.587 -0.977,-2.261 -1.909,-4.258 -2.795,-5.987 -0.888,-1.73 -1.597,-2.551 -2.129,-2.462 -0.711,0.177 -1.044,0.843 -0.998,1.996 0.044,1.152 0.154,2.528 0.333,4.125 0.177,1.597 0.311,3.28 0.4,5.056 0.086,1.773 -0.133,3.37 -0.665,4.79 -0.446,1.151 -0.978,1.95 -1.597,2.395 -0.622,0.443 -1.243,0.665 -1.863,0.665 -0.622,0 -1.198,-0.178 -1.73,-0.532 -0.532,-0.355 -0.977,-0.844 -1.331,-1.464 -0.798,-1.42 -1.286,-2.64 -1.463,-3.659 -0.114,-0.649 -0.157,-1.189 -0.143,-1.641 -0.552,-0.817 -1.21,-1.581 -1.985,-2.284 -0.798,-0.711 -1.796,-1.376 -2.993,-1.996 -1.198,-0.621 -2.551,-0.887 -4.059,-0.798 -1.064,0 -2.261,0.221 -3.591,0.665 0.087,0.443 0.153,0.842 0.199,1.198 C 9.423,-6.3 9.446,-5.9 9.446,-5.455 9.712,-2.528 9.601,-0.066 9.114,1.93 8.625,3.925 7.937,5.542 7.052,6.785 6.163,8.027 5.209,8.914 4.19,9.447 3.17,9.979 2.216,10.199 1.33,10.111 -0.533,9.934 -1.931,9.38 -2.861,8.448 -3.793,7.518 -4.392,6.387 -4.657,5.056 -5.19,4.877 -5.635,4.7 -5.988,4.523 -6.344,4.345 -6.743,3.991 -7.186,3.459 -7.984,2.482 -8.872,0.975 -9.847,-1.064 c -0.977,-2.042 -1.729,-5.236 -2.261,-9.581 -0.178,-1.064 -0.155,-2.308 0.066,-3.725 0.223,-1.42 0.621,-2.774 1.197,-4.059 0.576,-1.287 1.398,-2.394 2.462,-3.326 1.064,-0.932 2.395,-1.442 3.991,-1.53 3.371,-0.179 6.055,0.865 8.05,3.127 1.995,2.262 3.481,4.9 4.457,7.917 h 0.532 c 3.105,-0.446 5.7,-0.267 7.785,0.532 2.083,0.798 3.746,1.773 4.989,2.927 1.418,1.331 2.528,2.882 3.327,4.657 0.216,0.865 0.33,1.597 0.346,2.198 0.178,0.3 0.33,0.463 0.45,0.463 0.443,0 0.71,-0.445 0.799,-1.331 0.087,-0.888 0.044,-2.041 -0.133,-3.459 -0.09,-1.331 -0.223,-2.794 -0.399,-4.391 -0.179,-1.596 -0.201,-3.106 -0.067,-4.524 0.133,-1.42 0.466,-2.64 0.998,-3.659 0.532,-1.021 1.463,-1.575 2.794,-1.663 1.684,-0.089 3.148,0.709 4.391,2.395 1.241,1.684 2.305,3.547 3.193,5.588 0.886,2.04 1.597,3.903 2.129,5.589 0.532,1.684 0.932,2.482 1.197,2.395 0.354,-0.089 0.533,-0.578 0.533,-1.464 v -3.193 c 0,-1.243 0.066,-2.594 0.2,-4.058 0.133,-1.464 0.531,-2.817 1.197,-4.058 0.665,-1.244 1.641,-2.285 2.927,-3.128 1.285,-0.844 3.081,-1.309 5.389,-1.396 2.482,-0.09 4.767,0.532 6.853,1.863 2.083,1.33 3.879,2.881 5.389,4.656 1.506,1.774 2.726,3.481 3.658,5.123 0.931,1.64 1.53,2.682 1.796,3.126 0.62,1.331 1.019,2.506 1.198,3.527 0.177,1.018 0.199,1.817 0.066,2.395"
             style="fill:#91aba1;fill-opacity:1;fill-rule:nonzero;stroke:none"
             id="path122" /></g><g
           id="g124"
           transform="translate(226.2266,345.1987)"><path
             d="M 0,0 C 0,0.663 -0.238,1.162 -0.713,1.496 -1.188,1.827 -1.734,2.016 -2.351,2.065 -2.969,2.111 -3.562,1.994 -4.131,1.709 -4.7,1.424 -5.128,0.948 -5.413,0.285 -5.604,-1.046 -5.793,-2.328 -5.982,-3.561 -6.05,-3.932 -6.111,-4.309 -6.172,-4.686 h -0.012 c -0.15,-1.323 -0.333,-2.833 -0.548,-4.535 -0.356,-2.795 -0.711,-5.834 -1.064,-9.114 -0.356,-3.283 -0.689,-6.61 -0.998,-9.979 -0.312,-3.373 -0.6,-6.52 -0.866,-9.447 -0.265,-3.638 -0.511,-7.518 -0.731,-11.642 -0.223,-4.126 -0.379,-8.007 -0.466,-11.642 -0.089,-3.639 -0.112,-6.766 -0.066,-9.381 0.043,-2.617 0.153,-4.238 0.332,-4.857 0.266,-0.799 0.753,-1.484 1.464,-2.062 0.709,-0.576 1.44,-0.975 2.195,-1.197 0.753,-0.221 1.418,-0.288 1.996,-0.201 0.576,0.09 0.865,0.356 0.865,0.799 0,0.356 -0.112,1.51 -0.333,3.459 -0.222,1.95 -0.399,4.768 -0.532,8.449 -0.133,3.681 -0.156,8.317 -0.066,13.905 0.087,5.589 0.486,12.194 1.197,19.824 0.709,8.516 1.351,15.212 1.93,20.092 C -1.3,-7.338 0,-0.096 0,0"
             style="fill:#91aba1;fill-opacity:1;fill-rule:nonzero;stroke:none"
             id="path126" /></g><g
           id="g128"
           transform="translate(277.1343,347.8179)"><path
             d="M 0,0 C -0.033,1.128 -6.641,2.139 -7.764,2.1 L -136.24,-1.852 c -0.352,0.993 -0.927,1.69 -1.668,1.743 -1.279,0.097 -2.458,-1.65 -2.629,-3.915 -0.179,-2.268 0.719,-4.18 1.995,-4.277 0.968,-0.072 1.871,0.915 2.334,2.383 L -7.643,-1.967 C -6.522,-1.933 0.035,-1.117 0,0"
             style="fill:#91aba1;fill-opacity:1;fill-rule:nonzero;stroke:none"
             id="path130" /></g><g
           id="g132"
           transform="translate(426.6289,352.686)"><path
             d="m 0,0 c -1.16,0 -2.199,0.812 -2.444,1.992 -2.483,11.975 -7.68,18.945 -11.604,22.683 -4.238,4.038 -7.954,5.293 -7.991,5.304 -1.315,0.418 -2.036,1.821 -1.619,3.137 0.418,1.315 1.829,2.041 3.144,1.623 0.187,-0.059 4.633,-1.506 9.664,-6.211 C -6.317,24.291 -0.331,16.424 2.449,3.006 2.729,1.655 1.861,0.333 0.51,0.052 0.339,0.017 0.168,0 0,0"
             style="fill:#b46b95;fill-opacity:1;fill-rule:nonzero;stroke:none"
             id="path134" /></g><g
           id="g136"
           transform="translate(422.6562,335.002)"><path
             d="m 0,0 c -1.207,0 -2.269,0.875 -2.465,2.104 -1.318,8.248 -3.798,15.766 -7.369,22.347 -2.85,5.25 -6.399,9.924 -10.552,13.893 -5.677,5.427 -11.412,8.403 -13.652,9.218 -1.294,0.471 -1.965,1.902 -1.498,3.198 0.468,1.296 1.894,1.969 3.191,1.505 0.297,-0.107 7.376,-2.697 15.211,-10.117 C -12.563,37.821 -8.659,32.724 -5.532,27 -1.641,19.88 1.051,11.77 2.47,2.894 2.688,1.531 1.76,0.25 0.397,0.031 0.264,0.01 0.131,0 0,0"
             style="fill:#b46b95;fill-opacity:1;fill-rule:nonzero;stroke:none"
             id="path138" /></g><g
           id="g140"
           transform="translate(414.9668,322.0591)"><path
             d="m 0,0 c -1.263,0 -2.347,0.953 -2.482,2.237 -0.933,8.852 -3.33,17.21 -7.123,24.841 -3.034,6.103 -6.964,11.763 -11.683,16.822 -8.015,8.596 -15.52,12.462 -15.595,12.5 -1.23,0.625 -1.721,2.129 -1.096,3.36 0.625,1.23 2.13,1.72 3.36,1.095 0.338,-0.171 8.374,-4.311 16.987,-13.546 C -12.585,41.896 -8.378,35.838 -5.13,29.303 -1.07,21.137 1.492,12.207 2.488,2.761 2.633,1.389 1.637,0.158 0.266,0.014 0.176,0.004 0.087,0 0,0"
             style="fill:#b46b95;fill-opacity:1;fill-rule:nonzero;stroke:none"
             id="path142" /></g><g
           id="g144"
           transform="translate(406.6367,313.8574)"><path
             d="m 0,0 c -1.254,0 -2.336,0.942 -2.479,2.219 -1.016,8.996 -3.445,17.531 -7.222,25.367 -3.024,6.276 -6.917,12.126 -11.57,17.39 -6.367,7.202 -12.96,11.821 -15.558,13.257 -1.206,0.667 -1.646,2.187 -0.98,3.394 0.666,1.208 2.183,1.649 3.391,0.985 0.332,-0.183 8.228,-4.579 16.746,-14.162 C -12.683,42.837 -8.506,36.591 -5.26,29.884 -1.204,21.504 1.402,12.385 2.486,2.779 2.642,1.408 1.655,0.171 0.283,0.016 0.188,0.005 0.094,0 0,0"
             style="fill:#b46b95;fill-opacity:1;fill-rule:nonzero;stroke:none"
             id="path146" /></g><g
           id="g148"
           transform="translate(398.5635,306.5518)"><path
             d="m 0,0 c -1.233,0 -2.307,0.914 -2.474,2.17 -2.77,20.872 -11.594,35.408 -18.509,43.927 -7.451,9.18 -14.225,13.444 -14.292,13.486 -1.173,0.728 -1.532,2.269 -0.804,3.441 0.729,1.172 2.27,1.531 3.442,0.803 0.305,-0.19 7.56,-4.756 15.534,-14.58 C -12.441,43.504 -8.489,37.132 -5.357,30.31 -1.445,21.792 1.19,12.546 2.48,2.828 2.662,1.46 1.7,0.204 0.332,0.022 0.221,0.007 0.11,0 0,0"
             style="fill:#b46b95;fill-opacity:1;fill-rule:nonzero;stroke:none"
             id="path150" /></g><g
           id="g152"
           transform="translate(359.4834,279.7695)"><path
             d="m 0,0 c -0.917,0 -1.799,0.506 -2.237,1.382 -0.617,1.234 -0.117,2.735 1.118,3.352 14.909,7.454 32.365,22.565 32.539,22.717 1.042,0.905 2.62,0.796 3.526,-0.246 C 35.851,26.163 35.741,24.586 34.7,23.68 33.968,23.044 16.598,8.006 1.116,0.264 0.757,0.085 0.375,0 0,0"
             style="fill:#b46b95;fill-opacity:1;fill-rule:nonzero;stroke:none"
             id="path154" /></g><g
           id="g156"
           transform="translate(350,285.792)"><path
             d="m 0,0 c -0.967,0 -1.887,0.564 -2.295,1.508 -0.548,1.266 0.035,2.737 1.302,3.285 22.913,9.908 39.358,27.545 39.521,27.722 0.937,1.014 2.517,1.077 3.531,0.142 1.014,-0.936 1.078,-2.516 0.143,-3.53 C 41.507,28.373 24.909,10.549 0.99,0.206 0.667,0.066 0.331,0 0,0"
             style="fill:#b46b95;fill-opacity:1;fill-rule:nonzero;stroke:none"
             id="path158" /></g><g
           id="g160"
           transform="translate(340.7705,292.1992)"><path
             d="m 0,0 c -1.089,0 -2.091,0.718 -2.403,1.818 -0.376,1.328 0.395,2.709 1.723,3.086 23.859,6.764 45.511,30.554 45.727,30.793 0.924,1.025 2.504,1.108 3.529,0.184 1.025,-0.924 1.108,-2.503 0.184,-3.528 C 48.53,32.097 43.02,26.007 34.351,18.965 22.649,9.461 11.321,3.111 0.683,0.096 0.455,0.031 0.226,0 0,0"
             style="fill:#b46b95;fill-opacity:1;fill-rule:nonzero;stroke:none"
             id="path162" /></g><g
           id="g164"
           transform="translate(332.6968,298.7344)"><path
             d="m 0,0 c -1.105,0 -2.116,0.739 -2.413,1.857 -0.355,1.333 0.437,2.702 1.77,3.057 0.068,0.019 6.941,1.888 16.493,6.937 8.787,4.645 21.714,13.013 33.394,26.501 0.903,1.043 2.482,1.156 3.525,0.253 1.043,-0.903 1.156,-2.481 0.253,-3.525 C 40.785,20.95 27.241,12.203 18.034,7.353 8.016,2.076 0.94,0.164 0.644,0.085 0.429,0.028 0.213,0 0,0"
             style="fill:#b46b95;fill-opacity:1;fill-rule:nonzero;stroke:none"
             id="path166" /></g><g
           id="g168"
           transform="translate(325.2661,304.8857)"><path
             d="m 0,0 c -1.017,0 -1.973,0.625 -2.345,1.636 -0.476,1.295 0.186,2.731 1.481,3.208 0.399,0.147 37.389,13.977 52.38,35.479 0.789,1.133 2.347,1.41 3.479,0.621 1.132,-0.789 1.41,-2.346 0.621,-3.479 C 48.911,27.848 37.643,18.64 22.125,10.098 10.655,3.784 1.258,0.299 0.864,0.154 0.579,0.05 0.287,0 0,0"
             style="fill:#b46b95;fill-opacity:1;fill-rule:nonzero;stroke:none"
             id="path170" /></g><g
           id="g172"
           transform="translate(317.3208,313.2158)"><path
             d="m 0,0 c -1.07,0 -2.06,0.693 -2.389,1.769 -0.403,1.32 0.339,2.717 1.66,3.12 19.465,5.95 33.379,14.869 41.623,21.303 8.945,6.982 13.338,12.631 13.381,12.687 0.842,1.092 2.41,1.298 3.504,0.457 1.093,-0.84 1.3,-2.406 0.461,-3.5 C 58.052,35.59 53.519,29.733 44.134,22.382 35.534,15.645 21.023,6.312 0.731,0.11 0.488,0.036 0.242,0 0,0"
             style="fill:#b46b95;fill-opacity:1;fill-rule:nonzero;stroke:none"
             id="path174" /></g><g
           id="g176"
           transform="translate(310.1445,320.6484)"><path
             d="m 0,0 c -1.06,0 -2.043,0.68 -2.381,1.744 -0.418,1.315 0.31,2.72 1.626,3.138 41.512,13.175 55.847,33.191 55.988,33.391 0.789,1.132 2.347,1.41 3.478,0.62 1.133,-0.789 1.41,-2.347 0.621,-3.479 C 59.175,35.189 55.385,29.826 46.213,22.784 37.87,16.377 23.211,7.245 0.756,0.118 0.505,0.038 0.25,0 0,0"
             style="fill:#b46b95;fill-opacity:1;fill-rule:nonzero;stroke:none"
             id="path178" /></g><g
           id="g180"
           transform="translate(304.5054,328.0815)"><path
             d="m 0,0 c -1.104,0 -2.113,0.736 -2.412,1.853 -0.358,1.333 0.434,2.704 1.767,3.06 34.758,9.311 54.84,31.45 55.039,31.672 0.919,1.03 2.499,1.119 3.528,0.199 1.03,-0.919 1.119,-2.499 0.199,-3.528 C 57.906,33.015 52.734,27.27 43.046,20.287 34.137,13.866 19.549,5.148 0.648,0.086 0.432,0.028 0.214,0 0,0"
             style="fill:#b46b95;fill-opacity:1;fill-rule:nonzero;stroke:none"
             id="path182" /></g><g
           id="g184"
           transform="translate(357.5591,366.6538)"><path
             d="m 0,0 c -1.027,0 -1.989,0.638 -2.354,1.661 -6.727,18.884 -25.649,22.047 -25.839,22.077 -1.364,0.213 -2.297,1.491 -2.084,2.855 0.214,1.363 1.492,2.296 2.855,2.082 0.227,-0.035 5.639,-0.91 11.995,-4.45 C -6.988,19.524 -0.839,12.301 2.354,3.338 2.817,2.038 2.139,0.608 0.839,0.146 0.562,0.047 0.279,0 0,0"
             style="fill:#b46b95;fill-opacity:1;fill-rule:nonzero;stroke:none"
             id="path186" /></g><g
           id="g188"
           transform="translate(352.1787,361.2715)"><path
             d="m 0,0 c -0.921,0 -1.807,0.512 -2.242,1.394 -0.044,0.087 -2.678,5.291 -8.655,10.796 -7.995,7.363 -17.875,11.761 -29.369,13.072 -1.371,0.156 -2.356,1.395 -2.2,2.765 0.156,1.372 1.395,2.357 2.766,2.201 15.767,-1.799 26.303,-8.892 32.365,-14.525 C -0.729,9.564 2.123,3.842 2.242,3.602 2.85,2.363 2.339,0.865 1.1,0.257 0.746,0.083 0.37,0 0,0"
             style="fill:#b46b95;fill-opacity:1;fill-rule:nonzero;stroke:none"
             id="path190" /></g><g
           id="g192"
           transform="translate(344.7461,355.377)"><path
             d="m 0,0 c -0.945,0 -1.849,0.539 -2.271,1.453 -2.235,4.847 -5.779,9.051 -10.533,12.496 -3.88,2.811 -8.572,5.131 -13.947,6.896 -9.29,3.05 -17.467,3.374 -17.548,3.377 -1.379,0.049 -2.458,1.206 -2.409,2.585 0.048,1.379 1.203,2.458 2.582,2.409 0.357,-0.012 8.861,-0.337 18.806,-3.581 C -11.92,21.264 -2.38,13.625 2.268,3.545 2.846,2.292 2.298,0.808 1.045,0.23 0.706,0.074 0.35,0 0,0"
             style="fill:#b46b95;fill-opacity:1;fill-rule:nonzero;stroke:none"
             id="path194" /></g><g
           id="g196"
           transform="translate(337.9551,350.3794)"><path
             d="m 0,0 c -0.826,0 -1.633,0.409 -2.11,1.156 -0.048,0.075 -3.077,4.713 -9.652,9.428 -6.07,4.354 -16.511,9.675 -31.785,10.307 -1.379,0.056 -2.451,1.22 -2.393,2.6 0.057,1.379 1.219,2.449 2.6,2.393 16.641,-0.688 28.062,-6.578 34.713,-11.398 C -1.34,9.204 1.971,4.054 2.108,3.837 2.847,2.672 2.501,1.127 1.335,0.389 0.92,0.126 0.458,0 0,0"
             style="fill:#b46b95;fill-opacity:1;fill-rule:nonzero;stroke:none"
             id="path198" /></g><g
           id="g200"
           transform="translate(330.0098,345.6382)"><path
             d="m 0,0 c -0.79,0 -1.567,0.373 -2.053,1.07 -0.048,0.069 -2.836,3.966 -8.788,7.788 -5.504,3.536 -14.946,7.74 -28.618,7.673 h -0.012 c -1.375,0 -2.493,1.112 -2.499,2.488 -0.006,1.38 1.107,2.503 2.488,2.51 15.044,0.07 25.482,-4.651 31.584,-8.622 6.71,-4.367 9.821,-8.8 9.95,-8.986 C 2.837,2.787 2.555,1.23 1.42,0.444 0.986,0.144 0.491,0 0,0"
             style="fill:#b46b95;fill-opacity:1;fill-rule:nonzero;stroke:none"
             id="path202" /></g><g
           id="g204"
           transform="translate(322.0649,341.4087)"><path
             d="m 0,0 c -0.861,0 -1.698,0.445 -2.161,1.242 -0.05,0.082 -1.725,2.799 -5.951,5.424 -7.218,4.482 -16.199,5.261 -22.463,5.125 -1.377,-0.029 -2.523,1.064 -2.552,2.444 -0.03,1.379 1.064,2.522 2.443,2.552 C -5.91,17.329 1.848,4.297 2.166,3.742 2.852,2.544 2.437,1.017 1.24,0.331 0.848,0.107 0.421,0 0,0"
             style="fill:#b46b95;fill-opacity:1;fill-rule:nonzero;stroke:none"
             id="path206" /></g><g
           id="g208"
           transform="translate(312.7065,337.6934)"><path
             d="m 0,0 c -0.532,0 -1.067,0.169 -1.521,0.518 -0.112,0.084 -5.956,4.401 -16.528,4.867 -1.379,0.06 -2.447,1.227 -2.387,2.606 0.061,1.379 1.228,2.448 2.607,2.386 C -5.516,9.836 1.251,4.692 1.533,4.474 2.624,3.628 2.822,2.058 1.976,0.967 1.484,0.333 0.746,0 0,0"
             style="fill:#b46b95;fill-opacity:1;fill-rule:nonzero;stroke:none"
             id="path210" /></g><g
           id="g212"
           transform="translate(301.8154,334.2324)"><path
             d="m 0,0 c -0.287,0 -0.579,0.05 -0.863,0.155 l -2.435,0.897 c -1.295,0.477 -1.958,1.913 -1.481,3.209 0.477,1.294 1.913,1.958 3.208,1.48 L 0.864,4.844 C 2.159,4.368 2.822,2.931 2.345,1.636 1.973,0.626 1.017,0 0,0"
             style="fill:#b46b95;fill-opacity:1;fill-rule:nonzero;stroke:none"
             id="path214" /></g></g></g></g></svg>
